<?xml version="1.0" encoding="UTF-8" standalone="no"?>
<!DOCTYPE svg PUBLIC "-//W3C//DTD SVG 1.1//EN" "http://www.w3.org/Graphics/SVG/1.1/DTD/svg11.dtd">
<!-- Generated by graphviz version 2.40.1 (20161225.0304)
 -->
<!-- Title: %0 Pages: 1 -->
<svg width="261pt" height="310pt" viewBox="0.00 0.00 260.53 310.40" xmlns="http://www.w3.org/2000/svg" xmlns:xlink="http://www.w3.org/1999/xlink">
<g id="graph0" class="graph" transform="scale(1 1) rotate(0) translate(4 306.4)">
<title>%0</title>
<polygon fill="#ffffff" stroke="transparent" points="-4,4 -4,-306.4 256.5259,-306.4 256.5259,4 -4,4"/>
<!-- init -->
<g id="node1" class="node">
<title>init</title>
<ellipse fill="none" stroke="#000000" cx="77.106" cy="-284.4" rx="27" ry="18"/>
<text text-anchor="middle" x="77.106" y="-280.2" font-family="Times,serif" font-size="14.00" fill="#000000">init</text>
</g>
<!-- _push -->
<g id="node2" class="node">
<title>_push</title>
<ellipse fill="none" stroke="#000000" cx="34.106" cy="-195.6" rx="34.2123" ry="18"/>
<text text-anchor="middle" x="34.106" y="-191.4" font-family="Times,serif" font-size="14.00" fill="#000000">_push</text>
</g>
<!-- init&#45;&gt;_push -->
<g id="edge2" class="edge">
<title>init-&gt;_push</title>
<path fill="none" stroke="#000000" d="M55.5149,-273.3619C46.202,-267.3552 36.2793,-258.9724 31.1298,-248.4 27.4549,-240.8552 26.7838,-231.9668 27.4398,-223.6562"/>
<polygon fill="#000000" stroke="#000000" points="30.9296,-223.9726 28.8544,-213.583 23.9977,-222.999 30.9296,-223.9726"/>
<text text-anchor="middle" x="63.5941" y="-235.8" font-family="Times,serif" font-size="14.00" fill="#000000">constructor</text>
</g>
<!-- vacio -->
<g id="node5" class="node">
<title>vacio</title>
<ellipse fill="none" stroke="#000000" cx="120.106" cy="-195.6" rx="31.9012" ry="18"/>
<text text-anchor="middle" x="120.106" y="-191.4" font-family="Times,serif" font-size="14.00" fill="#000000">vacio</text>
</g>
<!-- init&#45;&gt;vacio -->
<g id="edge1" class="edge">
<title>init-&gt;vacio</title>
<path fill="none" stroke="#000000" d="M87.622,-267.4435C91.1315,-261.5131 94.9489,-254.7493 98.106,-248.4 102.1737,-240.2194 106.159,-231.0994 109.5959,-222.7719"/>
<polygon fill="#000000" stroke="#000000" points="112.8555,-224.047 113.3505,-213.4637 106.3637,-221.4283 112.8555,-224.047"/>
<text text-anchor="middle" x="136.5941" y="-235.8" font-family="Times,serif" font-size="14.00" fill="#000000">constructor</text>
</g>
<!-- _pop -->
<g id="node3" class="node">
<title>_pop</title>
<ellipse fill="none" stroke="#000000" cx="34.106" cy="-18" rx="30.2015" ry="18"/>
<text text-anchor="middle" x="34.106" y="-13.8" font-family="Times,serif" font-size="14.00" fill="#000000">_pop</text>
</g>
<!-- _push&#45;&gt;_pop -->
<g id="edge3" class="edge">
<title>_push-&gt;_pop</title>
<path fill="none" stroke="#000000" d="M32.0118,-177.5889C30.4602,-163.2982 28.479,-142.8015 27.6614,-124.8 26.9354,-108.8165 26.9354,-104.7835 27.6614,-88.8 28.3001,-74.7364 29.6491,-59.1497 30.9485,-46.1892"/>
<polygon fill="#000000" stroke="#000000" points="34.4538,-46.3207 32.0118,-36.0111 27.4917,-45.5933 34.4538,-46.3207"/>
<text text-anchor="middle" x="41.3283" y="-102.6" font-family="Times,serif" font-size="14.00" fill="#000000">push</text>
</g>
<!-- _pop_push -->
<g id="node4" class="node">
<title>_pop_push</title>
<ellipse fill="none" stroke="#000000" cx="116.106" cy="-106.8" rx="53.3399" ry="18"/>
<text text-anchor="middle" x="116.106" y="-102.6" font-family="Times,serif" font-size="14.00" fill="#000000">_pop_push</text>
</g>
<!-- _push&#45;&gt;_pop_push -->
<g id="edge4" class="edge">
<title>_push-&gt;_pop_push</title>
<path fill="none" stroke="#000000" d="M49.146,-179.3127C61.4303,-166.0098 78.9963,-146.987 93.0546,-131.7629"/>
<polygon fill="#000000" stroke="#000000" points="95.8271,-133.9197 100.0399,-124.1984 90.6843,-129.1707 95.8271,-133.9197"/>
<text text-anchor="middle" x="95.3283" y="-147" font-family="Times,serif" font-size="14.00" fill="#000000">push</text>
</g>
<!-- _pop&#45;&gt;_pop -->
<g id="edge5" class="edge">
<title>_pop-&gt;_pop</title>
<path fill="none" stroke="#000000" d="M61.4438,-26.1775C72.8162,-26.7415 82.4564,-24.0156 82.4564,-18 82.4564,-13.9583 78.1047,-11.4016 71.7996,-10.33"/>
<polygon fill="#000000" stroke="#000000" points="71.6032,-6.8162 61.4438,-9.8225 71.2605,-13.8078 71.6032,-6.8162"/>
<text text-anchor="middle" x="92.9564" y="-13.8" font-family="Times,serif" font-size="14.00" fill="#000000">pop</text>
</g>
<!-- _pop_push&#45;&gt;_pop -->
<g id="edge7" class="edge">
<title>_pop_push-&gt;_pop</title>
<path fill="none" stroke="#000000" d="M99.9054,-89.256C87.2661,-75.5686 69.5903,-56.4269 55.7412,-41.4293"/>
<polygon fill="#000000" stroke="#000000" points="58.2503,-38.9875 48.8947,-34.0151 53.1076,-43.7364 58.2503,-38.9875"/>
<text text-anchor="middle" x="95.3283" y="-58.2" font-family="Times,serif" font-size="14.00" fill="#000000">push</text>
</g>
<!-- _pop_push&#45;&gt;_pop_push -->
<g id="edge6" class="edge">
<title>_pop_push-&gt;_pop_push</title>
<path fill="none" stroke="#000000" d="M168.4241,-110.7918C179.516,-110.3865 187.5259,-109.0559 187.5259,-106.8 187.5259,-105.3196 184.0763,-104.2377 178.5699,-103.5542"/>
<polygon fill="#000000" stroke="#000000" points="178.6539,-100.051 168.4241,-102.8082 178.1405,-107.0322 178.6539,-100.051"/>
<text text-anchor="middle" x="198.0259" y="-102.6" font-family="Times,serif" font-size="14.00" fill="#000000">pop</text>
</g>
<!-- _pop_push&#45;&gt;_pop_push -->
<g id="edge8" class="edge">
<title>_pop_push-&gt;_pop_push</title>
<path fill="none" stroke="#000000" d="M164.182,-114.8486C187.5987,-115.8422 208.5259,-113.1594 208.5259,-106.8 208.5259,-101.3846 193.3504,-98.6352 174.3849,-98.552"/>
<polygon fill="#000000" stroke="#000000" points="174.1117,-95.0565 164.182,-98.7514 174.2486,-102.0552 174.1117,-95.0565"/>
<text text-anchor="middle" x="221.7482" y="-102.6" font-family="Times,serif" font-size="14.00" fill="#000000">push</text>
</g>
</g>
</svg>